<svg xmlns="http://www.w3.org/2000/svg" width="512" height="512">
  <path d="m119.023 63.7 2.26-.014q2.352-.008 4.704-.002c2.375.003 4.748-.02 7.122-.045 9.07-.039 17.606-.07 25.203 5.611 4.331 4.431 7.625 9.473 7.719 15.853l-.101 2.233c-.558 9.106-.558 9.106 3.125 16.894 2.701 1.392 2.701 1.392 5.675 2.446 4.009 1.623 6.977 3.89 10.333 6.574l1.696 1.326c2.188 1.724 4.27 3.453 6.241 5.424 2.28.321 2.28.321 4.963.294l3.182.044 3.506.016 3.68.04c4.037.04 8.074.063 12.11.083l4.173.024q9.809.058 19.618.083 11.305.031 22.611.153 8.747.088 17.493.097c3.48.005 6.96.022 10.439.073 3.89.055 7.778.047 11.669.033l3.462.078c6.114-.08 9.518-.792 14.155-4.923q1.973-2.044 3.939-4.095c2.201-1.64 4.443-2.971 6.813-4.375l3.269-1.96A129 129 0 0 1 345 102l.113-3.875q.098-2.562.2-5.125l.068-2.543c.365-8.56 2.383-15.221 8.619-21.457 6.336-4.548 12.224-5.158 19.828-5.203l2.268-.017q2.37-.014 4.74-.02c2.393-.01 4.784-.041 7.176-.072 17.083-.122 17.083-.122 24.293 4.925l1.57 1.7 1.617 1.675c3.943 5.261 4.7 9.197 4.719 15.601-.102 8.032-.102 8.032 3.182 15.036 3.573 2.594 7.632 4.07 11.746 5.602 4.61 1.915 8.215 5.45 11.861 8.773l2.96 2.68c20.214 18.907 26.622 43.429 30.97 69.911q.398 2.387.8 4.773 1.073 6.412 2.132 12.828c.75 4.529 1.509 9.056 2.266 13.584q2.152 12.887 4.292 25.776c1.917 11.547 3.844 23.092 5.77 34.636l1.41 8.458.465 2.783q1.335 8.002 2.665 16.006l2.484 14.942c1.461 8.808 2.951 17.61 4.507 26.402l.84 4.78q.781 4.438 1.585 8.87c2.808 15.78 4.634 32.553-2.146 47.571l-1.285 2.871c-7.97 16.008-21.367 25.805-37.82 31.91-14.836 4.617-31.351 2.636-45.207-3.969-19.198-10.377-27.642-25.638-34.5-45.625l-.954-2.751C385.37 384.82 385.37 384.82 386 380c2.456-3.323 3.926-4.776 8-5.625 3.922.817 5.797 2.39 8 5.625 1.766 4.159 3.096 8.439 4.438 12.75 4.295 13.766 9.954 25.018 22.75 32.5 11.708 6.007 23.074 7.303 35.69 3.848 12.744-4.482 21.307-12.482 27.114-24.543 2.332-5.91 3.37-11.383 3.324-17.72l-.013-2.363c-.178-9.414-1.757-18.563-3.36-27.82q-.495-2.953-.986-5.906c-.884-5.291-1.785-10.58-2.69-15.867-.951-5.564-1.885-11.132-2.822-16.699q-2.362-14.01-4.752-28.018a14661 14661 0 0 1-5.466-32.29q-2.909-17.272-5.838-34.542-.836-4.942-1.67-9.885-1.315-7.793-2.649-15.585-.485-2.841-.962-5.684C460.6 171.318 456.66 152.2 442 136l-2.05-2.332c-12.567-13.486-31.25-21.958-49.622-22.988-17.02-.575-31.813 2.725-46.567 11.304-1.61.93-3.26 1.791-4.913 2.645-3.622 2.24-6.278 4.122-7.367 8.418-.62 4.108-.847 8.22-1.083 12.363-.48 7.343-3.297 12.888-8.586 17.965-9.841 7.144-19.63 7.285-31.382 7.201-2.754-.014-5.506.02-8.26.059q-2.642 0-5.283-.006l-2.478.04c-4.279-.07-5.937-.3-9.425-3.02C263 165 263 165 262.375 162c.856-4.108 2.343-5.415 5.625-8 2.982-.472 5.4-.653 8.371-.602l2.424-.024c2.548-.023 5.094-.013 7.642.001 2.545.004 5.088 0 7.632-.02q2.37-.02 4.738.01c4.79-.025 8.026-.751 12.193-3.365 1.29-1.806 1.29-1.806 1.813-3.875l.644-1.992c.6-2.358 1.066-4.748 1.543-7.133H197c1.904 10.566 1.904 10.566 7 15 3.766 1.255 7.289 1.135 11.21 1.14q2.482.029 4.962.06c2.603.028 5.205.05 7.807.05 2.516.004 5.03.038 7.544.078l2.346-.021c4.03.09 5.918.525 9.122 3.047C249 159 249 159 249.625 162c-.86 4.125-2.313 5.417-5.625 8-2.969.712-5.845.678-8.887.629l-2.597.007a411 411 0 0 1-5.434-.04c-2.744-.033-5.484-.02-8.228 0-11.35-.01-21.682-.516-30.323-8.81-5.016-5.85-6.63-11.24-6.97-18.817-.282-8.008-.282-8.008-3.854-14.95-3.117-2.392-6.215-4.22-9.707-6.019l-3.309-1.941c-17.485-9.683-38.527-12.234-57.879-7.039C95.558 116.441 84.719 122.08 76 130l-2.223 1.945c-20.375 18.942-23.126 44.657-27.346 70.723-.77 4.731-1.556 9.46-2.342 14.188a1528 1528 0 0 0-1.703 10.67q-.55 3.329-1.105 6.658l-.47 3.124c-1.209 7.041-1.209 7.041-4.262 10.34-3.163 1.678-5.015 1.878-8.549 1.352-2.312-1-2.312-1-4-3-1.9-7.967-.043-15.751 1.316-23.68l.769-4.612q.807-4.83 1.637-9.657.84-4.896 1.643-9.798C34.18 168.91 39.268 142.699 61 121l1.762-1.977c4.483-4.946 10.022-8.392 15.64-11.91l1.743-1.092C82 105 82 105 84.18 104.201c2.277-.865 3.965-1.613 5.819-3.201 1.163-3.385 1.165-6.693 1.188-10.25.167-8.845 1.72-14.081 7.585-20.773l1.602-1.352 1.586-1.398c5.267-3.169 11.06-3.536 17.062-3.528M108 84c-.96 2.882-1.106 4.699-1.062 7.688L107 96l3.79-.492c5.535-.613 11.02-.655 16.585-.633l2.922-.012c6.617.01 13.124.431 19.703 1.137l.058-2.208.137-5.214c-.21-2.783-.612-4.288-2.195-6.578-5.028-3.345-11.463-2.372-17.272-2.37a410 410 0 0 1-6.464-.08q-2.068-.009-4.135-.01c-1.247-.01-2.494-.017-3.78-.026-3.947.573-5.58 1.662-8.349 4.486m255-1c-1.005 3.015-1.103 5.042-1.062 8.188L362 96l1.998-.214c6.895-.69 13.7-.939 20.627-.911l2.945-.012c5.89.008 11.588.378 17.43 1.137.456-7.498.456-7.498-3-14-4.852-3.235-10.519-2.333-16.196-2.316-2.165.003-4.327-.02-6.491-.045q-2.074-.004-4.149-.002l-3.798-.01C367.74 80.03 365.85 80.756 363 83"/>
  <path d="M24 262.371c3.39.113 5.514.35 8.5 2.067 3.62 6.182 1.147 14.855-.06 21.57l-.503 2.901q-.538 3.1-1.085 6.197a2391 2391 0 0 0-1.714 9.86 8769 8769 0 0 1-4.875 28.019 4225 4225 0 0 0-2.976 17.187 1233 1233 0 0 1-1.139 6.495c-5.262 28.772-5.262 28.772 4.102 55.646 7.554 9.986 17.17 16.121 29.582 18.406C66.152 432.317 77.779 428.998 88 422c12.349-9.817 16.402-24.352 21.098-38.777q.842-2.552 1.687-5.102 2.203-6.67 4.388-13.345a9501 9501 0 0 1 7.03-21.34q1.214-3.687 2.42-7.379c8.615-26.25 8.615-26.25 12.377-29.057 4.867-.66 7.628-.537 11.688 2.25 10.159 6.951 22.392 8.254 34.324 6.242 9.258-2.247 16.381-6.527 23.261-13.039 3.86-3.248 8.486-2.608 13.25-2.614l2.637-.015q4.323-.021 8.645-.027l6.004-.017q6.298-.015 12.595-.02c5.379-.006 10.758-.03 16.137-.058 4.135-.019 8.27-.024 12.405-.026q2.974-.004 5.95-.024a981 981 0 0 1 8.322-.008l2.482-.028c6.31.046 9.887 1.863 14.425 6.259 9.325 8.167 21.171 10.635 33.207 10.441 7.592-.654 14.67-2.748 20.98-7.066 4.104-2.793 6.773-3.07 11.688-2.25 3.96 3.91 5.494 8.37 7.234 13.52l.858 2.477a933 933 0 0 1 1.764 5.176c.89 2.626 1.803 5.243 2.718 7.86q.864 2.525 1.723 5.049l.824 2.346c1.68 5.056 2.268 9.238 1.879 14.572-1.5 2.5-1.5 2.5-4 4-2.807.604-5.246.866-8 0-3.245-3.522-4.875-6.762-6.36-11.29l-1.19-3.6-1.2-3.735-1.246-3.758C367 330.436 367 330.436 367 327l-1.871.805C349.83 334.185 332.886 335.57 317 330c-12.615-5.326-12.615-5.326-15.224-8.48-2.828-3.303-5.107-4.415-9.433-5.097-4.734-.314-9.468-.285-14.21-.255q-2.643-.01-5.286-.025-5.53-.018-11.06.02c-4.707.028-9.412-.002-14.118-.049-3.638-.03-7.275-.025-10.913-.012q-2.602.004-5.203-.026c-12.517-.206-12.517-.206-22.924 6.24L207 324c-14.035 8.71-31.154 11.636-47.344 8.168-5.114-1.258-9.966-2.75-14.656-5.168l-.66 3.458c-1.688 7.571-4.319 14.879-6.793 22.222l-1.63 4.86a5846 5846 0 0 1-3.42 10.15 3411 3411 0 0 0-4.33 12.928 2959 2959 0 0 1-3.371 10.027q-.801 2.38-1.593 4.763c-6.59 19.816-15.273 35.307-33.89 46.158-14.91 7.433-32.57 8.622-48.356 3.434-18.706-7.356-29.995-19.037-38.344-36.98-6.843-18.178-2.015-40.023 1.184-58.497q.592-3.53 1.182-7.062 1.228-7.322 2.492-14.637a2956 2956 0 0 0 3.16-18.752c.805-4.838 1.625-9.674 2.45-14.51q.588-3.46 1.163-6.92c.535-3.209 1.09-6.413 1.65-9.617l.466-2.868c1.976-11.005 1.976-11.005 7.64-12.786M141.324 143.68c5.95 4.688 9.058 9.922 10.676 17.32.188 3.063.188 3.063 0 5l3.5-.25c5.714.03 9.984 2.007 14.23 5.793 4.8 5.178 7.322 10.767 7.708 17.832-.271 6.275-2.117 11.998-6.31 16.742-6.057 5.52-11.119 7.069-19.128 7.883l-.043 1.688c-.49 7.826-3.278 12.572-8.707 18.125-6.56 4.415-12.588 5.922-20.473 4.882-6.71-1.68-12.076-5.038-15.84-10.882-2.604-4.7-3.038-8.44-2.937-13.813l-3.875-.125c-6.648-.765-12.543-3.743-16.832-8.945C78.74 197.818 78.317 191.347 79 183c1.735-6.751 6.507-11.01 12-15 4.288-2.466 8.165-2.164 13-2l-.187-3c.05-6.351 2.1-11.183 6.437-15.812 8.217-7.452 21.25-9.525 31.074-3.508m-19.508 15.402c-2.197 3.53-2.375 5.848-2.504 9.98-.283 7.582-.283 7.582-1.312 10.938-4.993 1.567-10.284 1.278-15.469 1.426-3.554.298-3.554.298-5.969 2.398-2.291 3.192-2.109 5.348-1.562 9.176 2.36 3.203 4.171 4.295 8 5 3.334.187 6.666.316 10.004.426 2.996.574 2.996.574 4.879 2.152 1.543 3.346 1.419 6.188 1.43 9.86.133 5.03.133 5.03 1.867 9.69 2.58 2.347 4.567 2.872 8.007 2.872 2.813-1 4.073-1.619 5.813-4 1.496-4.489 1.337-9.043 1.523-13.75.477-3.25.477-3.25 1.622-5.156 2.71-1.598 5.043-1.508 8.167-1.594 4.913-.273 8.555-.595 12.688-3.5 2.345-2.885 2.345-2.885 1.875-6.5-.553-3.444-.553-3.444-2.492-5.184-3.188-1.76-5.758-1.76-9.383-1.879-7.795-.272-7.795-.272-11-2.437-1.88-3.762-1.357-8.37-1.523-12.52-.496-3.621-1.3-5.579-3.477-8.48-4.052-2.026-7.875-2.073-11.184 1.082"/>
  <path d="M194.813 245.25c7.492 6.33 11.25 13.228 12.472 23.04.334 8.21-2.036 16.356-7.285 22.71-7.713 7.942-13.304 11.07-24.375 11.438-9.656-.23-16.777-2.736-23.867-9.368-7.301-8.599-8.577-18.157-7.758-29.07 2.02-8.923 7.415-15.806 14.938-20.875 11.44-6.535 25.283-5.691 35.875 2.125m-30.325 14.219c-3.825 4.472-4.906 7.328-4.832 13.078.594 4.239 2.534 7.286 5.344 10.453 4.102 2.983 7.866 3.535 12.824 3.352 4.546-.735 7.258-3.484 10.488-6.54 2.345-3.906 2.998-7.271 2.688-11.812-1.277-4.505-3.256-7.34-6.75-10.437-6.92-3.328-13.777-3.909-19.762 1.906m188.746-16.145c7.46 5.342 12.512 11.71 14.766 20.676 1.232 10.851-.323 19.677-7.125 28.313-5.112 5.466-12.636 9.377-20.133 9.925-11.247.216-18.578-1.496-26.953-9.32-6.578-7.052-9.328-14.975-9.031-24.566.978-9.5 5.003-16.408 11.902-22.918 10.397-8.234 25.278-8.804 36.574-2.11m-29.671 18.363c-2.51 5.32-3.348 9.911-1.5 15.563 2.673 3.794 5.734 6.649 9.937 8.75 5.38.668 9.915.365 14.492-2.68 3.38-2.96 5.138-6.133 5.887-10.562.282-5.396-.776-8.57-4.379-12.758-3.523-3.724-6.662-4.819-11.656-5.16-5.482.374-9.164 2.86-12.781 6.847M366 171c5.877 5.262 8.922 10.377 9.375 18.313-.186 6.144-2.098 11.144-6.21 15.738-5.956 5.51-11.398 7.536-19.509 7.316-5.835-.806-10.712-3.115-14.582-7.597-4.692-6.865-5.857-12.498-5.074-20.77 1.822-6.696 6.447-11.092 12-15 7.965-3.898 16.689-2.767 24 2m-17.687 13.688c-2.495 2.082-2.495 2.082-2.875 4.812.744 3.307 1.836 4.51 4.562 6.5 2.5.75 2.5.75 5 0 2.504-2.088 2.504-2.088 4-5 .17-2.651.17-2.651-1-5-3.405-3.292-5.524-3.927-9.687-1.312M403 208c6.055 5.317 8.58 10.375 9.313 18.438-.716 8.153-4.129 14.171-10.313 19.562-5.234 3.187-10.995 3.777-17 3-5.971-1.482-10.892-3.879-14.414-9.094-3.543-6.255-4.816-11.78-3.586-18.906 2.135-7.08 5.555-11.11 11.816-14.941 8.017-3.887 16.815-2.85 24.184 1.941m-18.25 13.688c-1.912 2.177-1.912 2.177-2.25 4.812.675 3.374 1.668 4.562 4.5 6.5 3.55 0 5.288-.357 7.938-2.75 1.255-2.222 1.255-2.222 1-4.812-1.143-2.971-2.157-3.928-4.938-5.438-3.935-.4-3.935-.4-6.25 1.688m55.168-50.504c5.183 3.9 7.423 8.624 9.082 14.816.788 6.53-.829 11.795-4.477 17.18-4.577 5.706-8.72 8.126-15.902 9.164-6.737.421-12.21-1.293-17.621-5.344-5.375-6.225-7.451-11.838-7.332-20.016.67-6.014 2.95-10.899 7.527-14.906 9.34-6.473 19.002-6.893 28.723-.894m-17.668 13.379c-2.66 2.328-2.66 2.328-2.25 6.062.683 3.626.683 3.626 4 5.375 3.463-.144 5.338-.402 7.938-2.75 1.255-2.222 1.255-2.222 1-4.812-1.134-2.947-2.203-3.91-4.938-5.438-3.092-.247-3.092-.247-5.75 1.563M403 134c5.807 4.798 8.57 11.06 9.375 18.438-.795 7.548-2.768 12.973-8.5 18.12-5.32 4.09-10.47 5.07-17.031 4.844-5.948-.841-10.813-3.045-14.766-7.632-4.7-6.86-5.86-12.5-5.078-20.77 1.81-6.649 6.405-11.203 12-15 8.552-3.45 16.079-2.431 24 2m-17.75 13.563c-2.66 2.328-2.66 2.328-2.25 6.062.683 3.626.683 3.626 4 5.375 2.457.584 2.457.584 5 0 2.504-2.088 2.504-2.088 4-5 .17-2.651.17-2.651-1-5-3.407-3.293-5.503-3.85-9.75-1.437m-102.996 55.074 3.588.002 3.72.048 3.733-.01c10.168.062 10.168.062 13.705 2.323 2.082 2.676 1.996 4.118 1.875 7.563C308 216 308 216 306.355 217.686c-4.505 2.514-9.727 1.832-14.772 1.815-2.012-.001-4.02.04-6.03.085l-3.862.008-3.525.021c-4.086-.794-5.578-2.43-8.166-5.615-.445-2.133-.445-2.133-.125-4.125l.242-2.008c2.303-4.871 7.299-5.244 12.137-5.23m-59.816.051 3.72-.05 3.588-.001 3.271-.01c3.375.422 5.26 1.368 7.983 3.373.883 1.867.883 1.867 1.125 3.875l.32 1.992c-.725 3.472-2.772 4.91-5.445 7.133-3.166.615-3.166.615-6.691.594l-3.862-.008-1.995-.044a249 249 0 0 0-6.036-.034c-9.682-.098-9.682-.098-12.771-1.822-2.575-2.64-2.52-5.096-2.645-8.686.784-2.637 1.39-3.61 3.7-5.087 4.902-1.946 10.535-1.24 15.738-1.226"/>
</svg>
