<svg xmlns="http://www.w3.org/2000/svg" width="512" height="512">
  <path d="M309.219 86.023c2.842 1.559 4.71 3.504 6.781 5.977l2.25 2.625c4.088 7.885 2.878 16.067.394 24.264l-.833 2.92c-.945 3.3-1.917 6.59-2.89 9.882q-1.063 3.687-2.122 7.375a4787 4787 0 0 1-4.26 14.73 7303 7303 0 0 0-10.201 35.5l-3.625 12.695-.93 3.255a37500 37500 0 0 1-10.576 36.94l-.986 3.44-3.972 13.853a258501 258501 0 0 0-14.931 52.095l-.967 3.372-7.275 25.38q-2.1 7.329-4.207 14.656a3334 3334 0 0 0-7.397 26.065q-1.637 5.868-3.286 11.733-.771 2.76-1.53 5.52-1.046 3.795-2.116 7.585l-.602 2.235c-2.11 7.396-5.787 12.36-11.938 16.88-6.094 2.866-12.33 3.163-18.762 1.125-5.874-2.67-9.036-5.547-12.238-11.125-3.858-11.573.719-23.818 3.988-34.986q.808-2.832 1.612-5.666c1.46-5.128 2.94-10.25 4.425-15.37 1.581-5.468 3.143-10.942 4.706-16.416 2.993-10.463 6.003-20.921 9.02-31.378a19895 19895 0 0 0 9.93-34.577 28463 28463 0 0 1 12.682-44.162l.975-3.385.976-3.384 1.946-6.754.97-3.362c4.573-15.873 9.105-31.757 13.609-47.65q2.805-9.884 5.62-19.767 2.642-9.29 5.256-18.59 1.607-5.689 3.232-11.371.743-2.613 1.473-5.231c5.396-19.342 5.396-19.342 11.713-24.79l1.992-1.099 2.008-1.152c6.513-3.175 13.52-2.675 20.086.113m74.031 62.602 3.266-.086c8.94 1.183 14.42 6.817 20.499 12.958l2.614 2.593q3.52 3.501 7.022 7.024c2.455 2.464 4.919 4.92 7.382 7.376q6.197 6.189 12.376 12.397c4.75 4.772 9.515 9.53 14.287 14.28a4983 4983 0 0 1 12.31 12.299q3.659 3.67 7.333 7.328a1704 1704 0 0 1 8.164 8.191l2.44 2.416c5.193 5.272 9.311 10.211 10.588 17.724L491.5 256l.031 2.875c-1.483 8.723-6.978 14.15-13.028 20.14l-2.593 2.614a1706 1706 0 0 1-7.024 7.022c-2.464 2.455-4.92 4.919-7.376 7.382a5489 5489 0 0 1-12.397 12.376q-7.156 7.127-14.28 14.287a4983 4983 0 0 1-12.299 12.31q-3.67 3.659-7.328 7.333a1750 1750 0 0 1-8.191 8.164l-2.416 2.44c-6.18 6.087-12.027 10.63-21.099 10.62-7.015-.236-11.082-2.215-16.023-7.055-4.034-4.5-5.765-8.825-5.852-14.82l-.086-2.676c1.194-7.8 5.965-13.091 11.433-18.438l2.1-2.102c2.274-2.271 4.562-4.528 6.85-6.784q2.38-2.37 4.758-4.742c4.16-4.145 8.333-8.278 12.508-12.408 4.263-4.223 8.516-8.457 12.769-12.69Q424.463 269.408 437 257c-1.295-2.852-2.651-4.895-4.878-7.091l-1.78-1.771-1.947-1.907-2.055-2.036a2163 2163 0 0 0-4.423-4.368 2491 2491 0 0 1-6.997-6.925 9141 9141 0 0 0-19.896-19.686q-6.094-6.016-12.165-12.055-2.313-2.295-4.64-4.58c-2.17-2.132-4.328-4.276-6.484-6.424l-1.942-1.888c-5.131-5.154-8.22-10.18-8.23-17.707.205-6.254 1.76-10.774 6.12-15.316 5.01-4.471 8.718-6.54 15.567-6.621m-245.812 1.293c6.03 3.53 10.32 8.423 12.562 15.082.336 2.613.336 2.613.375 5.313l.086 2.675c-1.194 7.8-5.965 13.091-11.433 18.438l-2.1 2.102a1528 1528 0 0 1-6.85 6.785l-4.758 4.74c-4.16 4.146-8.333 8.279-12.508 12.41a6942 6942 0 0 0-12.769 12.69A14141 14141 0 0 1 75 255c1.295 2.852 2.651 4.895 4.878 7.091.88.877.88.877 1.78 1.771l1.947 1.907 2.055 2.036q2.21 2.187 4.423 4.368 3.506 3.456 6.997 6.925a9141 9141 0 0 0 19.896 19.686q6.094 6.016 12.165 12.055 2.313 2.295 4.64 4.58c2.17 2.132 4.328 4.276 6.484 6.424l1.942 1.888c5.131 5.154 8.22 10.18 8.23 17.707-.205 6.254-1.76 10.774-6.12 15.316-5.01 4.471-8.718 6.54-15.567 6.621l-3.266.086c-8.94-1.183-14.42-6.817-20.499-12.958l-2.614-2.593a1706 1706 0 0 1-7.022-7.024c-2.455-2.464-4.919-4.92-7.382-7.376a5489 5489 0 0 1-12.376-12.397q-7.127-7.156-14.287-14.28a4983 4983 0 0 1-12.31-12.299q-3.659-3.67-7.333-7.328a1750 1750 0 0 1-8.164-8.191l-2.44-2.416c-5.193-5.272-9.311-10.211-10.588-17.724L20.5 256l-.031-2.875c1.483-8.723 6.978-14.15 13.028-20.14l2.593-2.614q3.502-3.52 7.024-7.022c2.464-2.455 4.92-4.919 7.376-7.382q6.189-6.197 12.397-12.376 7.157-7.127 14.28-14.287a4983 4983 0 0 1 12.299-12.31q3.67-3.659 7.328-7.333a1704 1704 0 0 1 8.191-8.164l2.416-2.44c8.347-8.223 18.115-13.629 30.037-9.139"/>
</svg>
